<?xml version="1.0" encoding="UTF-8" standalone="no"?>
<!DOCTYPE svg PUBLIC "-//W3C//DTD SVG 1.1//EN" "http://www.w3.org/Graphics/SVG/1.1/DTD/svg11.dtd">
<svg width="100%" height="100%" viewBox="0 0 233 375" version="1.1" xmlns="http://www.w3.org/2000/svg" xmlns:xlink="http://www.w3.org/1999/xlink" xml:space="preserve" xmlns:serif="http://www.serif.com/" style="fill-rule:evenodd;clip-rule:evenodd;stroke-linejoin:round;stroke-miterlimit:2;">
    <g transform="matrix(1,0,0,1,-109.714236,-78.514761)">
        <g transform="matrix(1,0,0,1,256,256)">
            <g transform="matrix(0.994522,-0.104528,0.104528,0.994522,-30,10)">
                <g id="receipt">
                    <path d="M-100,-160C-100,-170.972 -90.972,-180 -80,-180C-69.028,-180 -60,-170.972 -60,-160C-60,-170.972 -50.972,-180 -40,-180C-29.028,-180 -20,-170.972 -20,-160C-20,-170.972 -10.972,-180 -0,-180C10.972,-180 20,-170.972 20,-160C20,-170.972 29.028,-180 40,-180C50.972,-180 60,-170.972 60,-160C60,-170.972 69.028,-180 80,-180C90.972,-180 100,-170.972 100,-160L100,160C100,170.972 90.972,180 80,180C69.028,180 60,170.972 60,160C60,170.972 50.972,180 40,180C29.028,180 20,170.972 20,160C20,170.972 10.972,180 0,180C-10.972,180 -20,170.972 -20,160C-20,170.972 -29.028,180 -40,180C-50.972,180 -60,170.972 -60,160C-60,170.972 -69.028,180 -80,180C-90.972,180 -100,170.972 -100,160L-100,-160Z" style="fill:white;fill-rule:nonzero;"/>
                </g>
            </g>
        </g>
    </g>
</svg>
